<svg xmlns="http://www.w3.org/2000/svg" width="12" height="12" viewBox="0 0 12 12">
    <path fill="#FFF" fill-rule="nonzero" d="M11.53.471A1.6 1.6 0 0 0 10.39 0a1.6 1.6 0 0 0-1.138.471l-2.62 2.621-.27-.27a.765.765 0 0 0-.69-.21.765.765 0 0 0-.608.9.764.764 0 0 0 .21.397l.176.175-4.58 4.58a.607.607 0 0 0-.135.204l-.656 1.636a1.089 1.089 0 0 0 1.416 1.416l1.637-.656a.608.608 0 0 0 .204-.134l4.58-4.58.175.175a.782.782 0 0 0 .186.137.768.768 0 0 0 .357.088h.004a.77.77 0 0 0 .733-.55.771.771 0 0 0-.193-.761l-.27-.27 2.621-2.621a1.611 1.611 0 0 0 0-2.277zm-8.966 9.711l-1.247.5.5-1.246 4.492-4.492.747.747-4.492 4.491z"/>
</svg>
